<?xml version="1.0" standalone="no"?>
<!DOCTYPE svg PUBLIC "-//W3C//DTD SVG 1.1//EN" "http://www.w3.org/Graphics/SVG/1.1/DTD/svg11.dtd" >
<svg xmlns="http://www.w3.org/2000/svg">
<metadata></metadata>
<defs>
<font id="sofia_pro_mediumregular" horiz-adv-x="481" >
<font-face units-per-em="1000" ascent="750" descent="-250" />
<missing-glyph horiz-adv-x="254" />
<glyph horiz-adv-x="1000" />
<glyph horiz-adv-x="1000" />
<glyph unicode="&#xd;" horiz-adv-x="1000" />
<glyph unicode=" "  horiz-adv-x="254" />
<glyph unicode="&#x09;" horiz-adv-x="254" />
<glyph unicode="&#xa0;" horiz-adv-x="254" />
<glyph unicode="!" horiz-adv-x="268" d="M63 58q0 29 21 48.5t50 19.5q30 0 50.5 -19.5t20.5 -48.5t-20.5 -48t-50.5 -19q-29 0 -50 19t-21 48zM77 689h111l-14 -504h-82z" />
<glyph unicode="&#x22;" horiz-adv-x="356" d="M71 689h78l-6 -290h-66zM207 689h78l-6 -290h-66z" />
<glyph unicode="#" horiz-adv-x="674" d="M37 168l23 87h107l48 173h-105l23 87h106l49 174h93l-49 -174h106l49 174h93l-49 -174h107l-24 -87h-108l-49 -173h108l-24 -87h-108l-50 -168h-91l48 168h-105l-50 -168h-91l49 168h-106zM259 255h105l49 173h-106z" />
<glyph unicode="$" horiz-adv-x="564" d="M45 200h106q2 -44 40 -78.5t97 -34.5q58 0 91 27t39 67q5 85 -109 112l-87 22q-171 46 -171 185q0 79 58 132.5t143 62.5v102h65v-103q83 -11 134 -65t51 -136h-106q0 47 -33 75.5t-87 28.5q-49 0 -84 -26.5t-35 -68.5q0 -66 92 -90l88 -23q102 -27 148 -82.5t38 -131.5 q-7 -76 -63 -126.5t-143 -57.5v-111h-65v112q-92 10 -149.5 69.5t-57.5 138.5z" />
<glyph unicode="%" horiz-adv-x="684" d="M37 536q0 56 38.5 95t94.5 39t95 -39t39 -95t-39 -94.5t-95 -38.5t-94.5 38.5t-38.5 94.5zM110 536q0 -26 17 -43t43 -17q25 0 43 17.5t18 42.5t-18 43t-43 18q-26 0 -43 -17.5t-17 -43.5zM139 0l327 668h67l-328 -668h-66zM380 123q0 56 38.5 95t94.5 39 q55 0 94.5 -39.5t39.5 -94.5q0 -56 -39 -94.5t-95 -38.5t-94.5 38.5t-38.5 94.5zM453 123q0 -26 17 -43t43 -17t44 17t18 43q0 25 -18.5 43t-43.5 18t-42.5 -18t-17.5 -43z" />
<glyph unicode="&#x26;" horiz-adv-x="666" d="M54 205q0 58 27.5 105.5t77.5 74.5q-27 20 -43 56t-16 76q0 72 53.5 124t131.5 53q54 1 99.5 -25t74.5 -71l-85 -52q-32 49 -83 49q-39 0 -63 -23.5t-24 -57.5q0 -33 23 -64t63 -31h130v87h96v-87h86v-83h-86v-128q0 -64 20.5 -94.5t81.5 -30.5v-93q-130 0 -167 77 q-24 -36 -71 -56.5t-99 -20.5q-99 0 -163 61.5t-64 153.5zM157 208q2 -53 37.5 -86t92.5 -33q66 0 99.5 43.5t33.5 118.5v85h-133q-59 0 -95 -39.5t-35 -88.5z" />
<glyph unicode="'" horiz-adv-x="220" d="M71 689h78l-6 -290h-66z" />
<glyph unicode="(" horiz-adv-x="367" d="M46 231q0 212 78.5 339t206.5 127v-94q-84 0 -138 -104t-54 -268q0 -163 54 -266.5t138 -103.5v-94q-128 0 -206.5 126t-78.5 338z" />
<glyph unicode=")" horiz-adv-x="367" d="M36 -139q83 0 137.5 103.5t54.5 266.5t-54.5 267.5t-137.5 104.5v94q128 0 206.5 -127t78.5 -339q0 -211 -78.5 -337.5t-206.5 -126.5v94z" />
<glyph unicode="*" horiz-adv-x="472" d="M51 536l27 78l124 -49l-8 134h84l-9 -133l126 48l25 -78l-129 -35l86 -107l-66 -46l-73 111l-77 -113l-64 49l84 104z" />
<glyph unicode="+" horiz-adv-x="515" d="M52 216v91h160v160h91v-160h160v-91h-160v-161h-91v161h-160z" />
<glyph unicode="," horiz-adv-x="259" d="M11 -104q73 102 70 230h108q-5 -91 -36.5 -156.5t-71.5 -97.5z" />
<glyph unicode="-" d="M66 190v93h349v-93h-349z" />
<glyph unicode="." horiz-adv-x="266" d="M63 57q0 29 20.5 48.5t49.5 19.5q30 0 50.5 -19.5t20.5 -48.5t-20.5 -48t-50.5 -19q-29 0 -49.5 19t-20.5 48z" />
<glyph unicode="/" horiz-adv-x="502" d="M31 0l338 689h102l-338 -689h-102z" />
<glyph unicode="0" horiz-adv-x="604" d="M63 325q0 59 6.5 107t23.5 92t43.5 73.5t68.5 47t97 17.5t97 -17.5t68.5 -47t43 -73.5t23 -92t6.5 -107t-6.5 -106.5t-23 -91t-43 -73t-68.5 -47t-97 -17.5q-69 0 -117 25.5t-74 73.5t-37 105t-11 131zM165 325q0 -235 137 -235q136 0 136 235t-136 235q-137 0 -137 -235 z" />
<glyph unicode="1" horiz-adv-x="344" d="M41 482v95l210 83v-660h-102v521z" />
<glyph unicode="2" horiz-adv-x="532" d="M52 483q13 82 71.5 131t139.5 49q88 0 148 -54.5t60 -140.5q0 -89 -71 -168q-132 -155 -170 -200h237v-100h-409v49l266 320q45 53 45 99q0 41 -31 67.5t-77 26.5q-43 0 -74 -27.5t-37 -72.5z" />
<glyph unicode="3" horiz-adv-x="538" d="M39 122l90 48q13 -31 50.5 -55.5t71.5 -24.5q60 0 91.5 28t31.5 72q0 42 -31.5 76.5t-85.5 33.5h-73v95h73q36 -1 57.5 22t26.5 52q9 62 -48 85q-16 7 -45 7q-57 1 -92 -51l-78 57q27 47 79 73.5t113 22.5q80 -4 132 -57t52 -124q0 -38 -21.5 -73t-57.5 -56 q48 -18 76.5 -67t28.5 -104q0 -89 -64 -140.5t-164 -51.5q-74 0 -130 36.5t-83 95.5z" />
<glyph unicode="4" horiz-adv-x="591" d="M21 137l348 516h88v-423h91v-93h-91v-137h-102v137h-334zM184 230h171v255z" />
<glyph unicode="5" horiz-adv-x="569" d="M46 135q11 5 45 25.5t42 24.5q20 -44 55.5 -69.5t78.5 -25.5q72 0 111 35.5t39 89.5q0 58 -37.5 89.5t-93.5 31.5q-79 0 -158 -59l-61 45l56 331h357v-97h-274l-31 -165q21 16 56 26.5t66 10.5q95 0 158 -56.5t63 -156.5q0 -101 -69 -163t-182 -62q-68 0 -128.5 39.5 t-92.5 105.5z" />
<glyph unicode="6" horiz-adv-x="561" d="M66 215q-6 51 -3 104.5t9 103.5t24.5 94.5t44.5 77t69 51t98 16.5q64 -3 112 -30.5t79 -95.5l-93 -40q-34 70 -102 70t-108 -63t-32 -156q41 74 139 74q85 0 143 -63.5t58 -159.5q-3 -90 -66.5 -149t-156.5 -59q-88 0 -147.5 61.5t-67.5 163.5zM172 211q0 -50 33 -84 t80 -35q48 -2 82 30.5t34 80.5q0 49 -30.5 83.5t-77.5 35.5q-48 2 -84.5 -31.5t-36.5 -79.5z" />
<glyph unicode="7" horiz-adv-x="532" d="M55 554v99h462l-341 -653h-119l291 554h-293z" />
<glyph unicode="8" horiz-adv-x="570" d="M54 207q0 54 26 99t72 72q-48 46 -48 114q0 71 52 121t129 50t130 -50t53 -121q0 -68 -51 -114q46 -28 72.5 -73t26.5 -98q0 -91 -67 -154t-164 -63t-164 63t-67 154zM156 208q0 -50 37.5 -84.5t91.5 -34.5t91 34.5t37 84.5q0 48 -36 83t-89 35h-11q-51 -1 -86 -36 t-35 -82zM204 491q0 -33 23 -54.5t60 -21.5q35 1 57 23t22 53q0 30 -23 51.5t-58 21.5t-58 -21.5t-23 -51.5z" />
<glyph unicode="9" horiz-adv-x="561" d="M56 454q3 90 66.5 149t156.5 59q88 0 147.5 -61.5t67.5 -163.5q6 -51 3 -104.5t-9 -103.5t-24.5 -94.5t-44.5 -77t-69 -51t-98 -16.5q-64 3 -112 30.5t-79 95.5l93 40q34 -70 102 -70t108 63t32 156q-38 -74 -139 -74q-85 0 -143 63.5t-58 159.5zM159 449 q0 -49 30.5 -83.5t77.5 -35.5q48 -2 84.5 31.5t36.5 79.5q0 50 -33 84t-80 35q-48 2 -82 -30.5t-34 -80.5z" />
<glyph unicode=":" horiz-adv-x="273" d="M66 57q0 29 20.5 48.5t50.5 19.5q29 0 49.5 -19.5t20.5 -48.5t-20.5 -48t-49.5 -19q-30 0 -50.5 19t-20.5 48zM66 409q0 30 20.5 49t50.5 19q29 0 49.5 -19.5t20.5 -48.5t-20.5 -48.5t-49.5 -19.5q-30 0 -50.5 19.5t-20.5 48.5z" />
<glyph unicode=";" horiz-adv-x="286" d="M21 -104q74 101 71 230h111q-4 -91 -35.5 -156.5t-71.5 -97.5zM78 409q0 30 20.5 49t50.5 19q29 0 50 -19.5t21 -48.5t-21 -48.5t-50 -19.5q-30 0 -50.5 19.5t-20.5 48.5z" />
<glyph unicode="&#x3c;" horiz-adv-x="614" d="M43 230v93l505 193v-100l-375 -139l375 -141v-100z" />
<glyph unicode="=" horiz-adv-x="606" d="M73 120v89h460v-89h-460zM73 315v89h460v-89h-460z" />
<glyph unicode="&#x3e;" horiz-adv-x="614" d="M66 36v100l375 141l-375 139v100l505 -193v-93z" />
<glyph unicode="?" horiz-adv-x="487" d="M42 488q0 94 57.5 151.5t142.5 57.5q87 0 147 -53.5t60 -141.5q0 -70 -40 -120t-102 -69q-34 -10 -50 -26.5t-16 -49.5l-2 -51h-100v51q0 39 7.5 65t25 42.5t34.5 26.5t48 25.5t53 30.5q40 28 40 75q0 41 -31 67t-74 26q-42 0 -71.5 -29.5t-29.5 -77.5h-99zM119 58 q0 29 21 48.5t50 19.5q30 0 50.5 -19.5t20.5 -48.5t-20.5 -48t-50.5 -19q-29 0 -50 19t-21 48z" />
<glyph unicode="@" horiz-adv-x="969" d="M48 253q0 119 57 220t156.5 160t218.5 59q121 0 224 -54t165 -151.5t62 -216.5q0 -47 -10.5 -94.5t-31.5 -92t-59.5 -72t-89.5 -27.5q-62 0 -103 34.5t-41 111.5v128q0 53 -37 89.5t-89 36.5t-89 -36.5t-37 -89.5q0 -52 37 -88.5t89 -36.5q48 0 94 43v-88 q-48 -30 -94 -30q-83 0 -142 58.5t-59 141.5q0 84 59 142.5t142 58.5q82 0 140 -56t61 -136v-144q0 -64 69 -64q33 0 57 21t35.5 55.5t16.5 67.5t5 67q0 148 -110 247.5t-264 99.5q-150 0 -253.5 -106.5t-103.5 -257.5t103.5 -255.5t253.5 -104.5h25v-76h-25 q-182 0 -307 126.5t-125 309.5z" />
<glyph unicode="A" horiz-adv-x="647" d="M6 0l260 689h115l260 -689h-112l-66 172h-278l-66 -172h-113zM221 267h206l-103 289z" />
<glyph unicode="B" horiz-adv-x="629" d="M90 0v689h264q88 0 139.5 -49t51.5 -133q0 -105 -89 -140q57 -13 91.5 -62t34.5 -103q0 -85 -56.5 -143.5t-150.5 -58.5h-285zM197 97h173q46 0 73.5 32t27.5 74t-29 77t-75 35h-170v-218zM197 406h153q40 0 62.5 28t22.5 69q0 42 -24.5 65.5t-67.5 23.5h-146v-186z" />
<glyph unicode="C" horiz-adv-x="684" d="M47 343q0 147 101 250.5t247 103.5q81 0 150 -33t116 -91l-82 -64q-76 86 -184 86q-102 0 -172 -73.5t-70 -178.5t70 -178t172 -73q116 0 186 90l82 -65q-46 -60 -115.5 -93.5t-152.5 -33.5q-146 0 -247 103t-101 250z" />
<glyph unicode="D" horiz-adv-x="719" d="M90 0v689h268q143 0 226.5 -97.5t83.5 -248.5q0 -150 -83 -246.5t-227 -96.5h-268zM196 98h162q98 0 151 69t53 176q0 108 -53.5 177.5t-150.5 69.5h-162v-492z" />
<glyph unicode="E" horiz-adv-x="567" d="M90 0v689h415v-98h-309v-204h270v-97h-270v-193h319v-97h-425z" />
<glyph unicode="F" horiz-adv-x="527" d="M90 0v689h409v-98h-303v-204h240v-97h-240v-290h-106z" />
<glyph unicode="G" horiz-adv-x="755" d="M47 343q0 147 101 250.5t248 103.5q143 0 240 -97l-78 -69q-68 65 -162 65q-102 0 -172.5 -74t-70.5 -179t70.5 -179t172.5 -74q86 0 144.5 46.5t62.5 122.5h-193v91h315q0 -179 -88 -269.5t-241 -90.5q-146 0 -247.5 103t-101.5 250z" />
<glyph unicode="H" horiz-adv-x="705" d="M90 0v689h106v-298h311v298h108v-689h-108v294h-311v-294h-106z" />
<glyph unicode="I" horiz-adv-x="286" d="M90 0v689h106v-689h-106z" />
<glyph unicode="J" horiz-adv-x="287" d="M-100 -235l10 99q27 -9 71 -9q56 0 82.5 34.5t26.5 89.5v710h107v-710q0 -100 -52.5 -163t-163.5 -63q-27 0 -81 12z" />
<glyph unicode="K" horiz-adv-x="583" d="M90 0v689h107v-280l211 280h125l-264 -343l325 -346h-140l-257 279v-279h-107z" />
<glyph unicode="L" horiz-adv-x="499" d="M90 0v689h106v-592h276v-97h-382z" />
<glyph unicode="M" horiz-adv-x="927" d="M51 0l84 689h94l234 -491l234 491h95l84 -689h-106l-59 492l-202 -415h-90l-203 415l-59 -492h-106z" />
<glyph unicode="N" horiz-adv-x="681" d="M90 0v689h102l293 -489v489h106v-689h-99l-296 493v-493h-106z" />
<glyph unicode="O" horiz-adv-x="792" d="M47 343q0 148 101 251t247 103q147 0 248.5 -103t101.5 -251q0 -147 -101.5 -250t-248.5 -103q-146 0 -247 103t-101 250zM153 343q0 -104 70 -176.5t172 -72.5t172.5 72.5t70.5 176.5t-70.5 177t-172.5 73t-172 -73t-70 -177z" />
<glyph unicode="P" horiz-adv-x="607" d="M90 0v689h277q104 0 157 -64t53 -155t-52.5 -154t-157.5 -63h-170v-253h-107zM197 350h164q54 0 82 35.5t28 84.5t-27 85t-79 36h-168v-241z" />
<glyph unicode="Q" horiz-adv-x="794" d="M47 343q0 147 101 250.5t248 103.5q148 0 249.5 -103t101.5 -251q0 -92 -43 -170.5t-117 -126.5l70 -113l-80 -49l-76 122q-48 -16 -105 -16q-146 0 -247.5 103t-101.5 250zM153 343q0 -98 62.5 -168t156.5 -78q35 -4 71 2l-66 108l79 49l75 -121q51 33 80 88t29 120 q0 105 -70.5 178.5t-173.5 73.5q-102 0 -172.5 -73.5t-70.5 -178.5z" />
<glyph unicode="R" horiz-adv-x="622" d="M90 0v689h269q104 0 157 -64t53 -155q0 -83 -44.5 -143t-133.5 -70l181 -257h-129l-172 253h-74v-253h-107zM197 350h154q54 0 81 35.5t27 84.5t-26 85t-78 36h-158v-241z" />
<glyph unicode="S" horiz-adv-x="574" d="M50 200h106q2 -44 40 -78.5t97 -34.5q58 0 91 27t39 67q5 85 -109 112l-87 22q-171 46 -171 185q0 86 67 141.5t160 55.5q97 0 160.5 -55.5t63.5 -148.5h-106q0 47 -33 75.5t-87 28.5q-49 0 -84 -26.5t-35 -68.5q0 -66 92 -90l88 -23q102 -27 148 -82.5t38 -131.5 q-8 -82 -72.5 -133.5t-162.5 -51.5q-105 0 -174 62t-69 148z" />
<glyph unicode="T" horiz-adv-x="570" d="M28 590v99h514v-99h-203v-590h-108v590h-203z" />
<glyph unicode="U" horiz-adv-x="677" d="M83 239v450h108v-450q0 -65 43.5 -106t104.5 -41t104.5 41t43.5 106v450h107v-450q0 -110 -74.5 -179.5t-180.5 -69.5q-107 0 -181.5 69.5t-74.5 179.5z" />
<glyph unicode="V" horiz-adv-x="566" d="M25 689h111l147 -512l148 512h110l-208 -689h-99z" />
<glyph unicode="W" horiz-adv-x="897" d="M11 689h114l164 -513l118 419h83l118 -419l164 513h114l-233 -689h-89l-116 413l-115 -413h-89z" />
<glyph unicode="X" horiz-adv-x="624" d="M9 0l239 369l-214 320h128l150 -234l152 234h127l-215 -320l240 -369h-127l-177 282l-177 -282h-126z" />
<glyph unicode="Y" horiz-adv-x="634" d="M0 689h127l190 -274l192 274h127l-265 -374v-315h-109v316z" />
<glyph unicode="Z" horiz-adv-x="577" d="M41 0v88l352 503h-338v98h474v-89l-354 -502h354v-98h-488z" />
<glyph unicode="[" horiz-adv-x="328" d="M81 -227v916h208v-88h-111v-740h111v-88h-208z" />
<glyph unicode="\" horiz-adv-x="502" d="M31 689h102l338 -689h-102z" />
<glyph unicode="]" horiz-adv-x="328" d="M39 -139h111v740h-111v88h208v-916h-208v88z" />
<glyph unicode="_" horiz-adv-x="709" d="M66 -29h577v-86h-577v86z" />
<glyph unicode="`" horiz-adv-x="522" d="M129 698h116l100 -158h-90z" />
<glyph unicode="a" horiz-adv-x="610" d="M42 234q0 108 69.5 175.5t167.5 67.5q46 0 90 -19.5t67 -56.5v66h102v-467h-102v67q-22 -36 -66.5 -56.5t-90.5 -20.5q-98 0 -167.5 68t-69.5 176zM148 235q0 -63 41.5 -104t101.5 -41t102 39.5t42 105.5q0 65 -43.5 103.5t-100.5 38.5q-60 0 -101.5 -39.5t-41.5 -102.5z " />
<glyph unicode="b" horiz-adv-x="608" d="M72 0v721h103v-321q21 37 63.5 57t93.5 20q98 0 165.5 -67t67.5 -177q0 -107 -68.5 -175t-165.5 -68q-49 0 -92 20.5t-64 57.5v-68h-103zM176 235q0 -66 41.5 -105.5t101.5 -39.5q59 0 100 41t41 104t-40.5 102.5t-100.5 39.5q-57 0 -100 -38.5t-43 -103.5z" />
<glyph unicode="c" horiz-adv-x="514" d="M42 235q0 108 72.5 175t176.5 67q116 0 185 -81l-80 -64q-39 45 -105 45q-61 0 -104 -39.5t-43 -102.5q0 -64 43.5 -105t103.5 -41q65 0 105 46l81 -63q-69 -82 -186 -82q-103 0 -176 68.5t-73 176.5z" />
<glyph unicode="d" horiz-adv-x="608" d="M43 233q0 109 67.5 176.5t165.5 67.5q51 0 94 -20t64 -57v321h102v-721h-102v68q-21 -37 -64.5 -57.5t-93.5 -20.5q-97 0 -165 67.5t-68 175.5zM149 235q0 -64 40.5 -104.5t99.5 -40.5q60 0 101.5 39.5t41.5 105.5q0 65 -43 103.5t-100 38.5q-60 0 -100 -39.5t-40 -102.5 z" />
<glyph unicode="e" horiz-adv-x="553" d="M42 235q0 109 69 175.5t171 66.5t168 -66.5t66 -175.5q0 -28 -1 -38h-371q7 -54 46.5 -85.5t96.5 -31.5q40 0 74.5 17.5t52.5 49.5q15 -7 45.5 -20.5t38.5 -16.5q-30 -59 -88 -89.5t-128 -30.5q-102 0 -171 68t-69 177zM144 272h271q-7 54 -43.5 84.5t-89.5 30.5 q-55 0 -93 -31t-45 -84z" />
<glyph unicode="f" horiz-adv-x="347" d="M25 382v85h89v43q0 99 47 155t140 56h51v-99h-51q-83 0 -83 -112v-43h105v-85h-105v-382h-104v382h-89z" />
<glyph unicode="g" horiz-adv-x="610" d="M43 232q0 109 69 177t167 68q49 0 93 -21t65 -58v69h101v-398q0 -302 -257 -302q-68 0 -125.5 34.5t-90.5 96.5q9 4 42.5 21.5t42.5 21.5q18 -36 55 -57t76 -21q156 0 156 184v24q-20 -38 -64.5 -59.5t-93.5 -21.5q-98 0 -167 67t-69 175zM149 233q0 -64 41 -104t101 -40 q56 0 100 39.5t44 104.5q0 67 -41.5 105.5t-102.5 38.5q-60 0 -101 -40.5t-41 -103.5z" />
<glyph unicode="h" horiz-adv-x="578" d="M72 0v721h103v-325q18 39 62 60t86 21q89 0 139 -55.5t50 -155.5v-266h-103v260q0 53 -29.5 84.5t-74.5 31.5q-52 0 -91 -31t-39 -94v-251h-103z" />
<glyph unicode="i" horiz-adv-x="246" d="M54 656q0 27 20.5 46t48.5 19q29 0 48.5 -18.5t19.5 -46.5t-19.5 -46.5t-48.5 -18.5q-28 0 -48.5 19t-20.5 46zM72 0v467h102v-467h-102z" />
<glyph unicode="j" horiz-adv-x="248" d="M-62 -135h56q80 0 78 105v497h104v-497q0 -201 -170 -201h-68v96zM55 656q0 27 20.5 46t48.5 19q29 0 49 -18.5t20 -46.5t-20 -46.5t-49 -18.5q-28 0 -48.5 19t-20.5 46z" />
<glyph unicode="k" horiz-adv-x="506" d="M72 0v721h102v-408l148 154h138l-199 -203l244 -264h-132l-199 217v-217h-102z" />
<glyph unicode="l" horiz-adv-x="247" d="M72 0v721h103v-721h-103z" />
<glyph unicode="m" horiz-adv-x="873" d="M72 0v467h103v-70q21 43 64.5 61.5t82.5 18.5q106 0 147 -93q51 93 157 93q86 0 133 -54t47 -154v-269h-103v260q0 54 -27 85t-72 31q-51 0 -82 -34.5t-31 -90.5v-251h-103v262q-1 53 -27 83.5t-68 30.5q-50 0 -84 -30.5t-34 -94.5v-251h-103z" />
<glyph unicode="n" horiz-adv-x="563" d="M72 0v467h103v-70q19 38 60 59t83 21q85 0 131.5 -53t46.5 -152v-272h-103v260q0 55 -26.5 85.5t-71.5 30.5q-51 0 -85.5 -30.5t-34.5 -94.5v-251h-103z" />
<glyph unicode="o" horiz-adv-x="572" d="M42 235q0 108 70.5 175t172.5 67q103 0 174 -67t71 -175t-71.5 -176.5t-173.5 -68.5t-172.5 68.5t-70.5 176.5zM144 235q0 -64 41 -104.5t100 -40.5q60 0 101 40t41 105q0 63 -41 102t-101 39q-59 0 -100 -39t-41 -102z" />
<glyph unicode="p" horiz-adv-x="606" d="M72 -227v694h103v-69q21 37 64.5 58t91.5 21q97 0 164.5 -68t67.5 -176q0 -109 -67.5 -176t-164.5 -67q-50 0 -92.5 20t-63.5 57v-294h-103zM176 231q0 -65 42.5 -103.5t99.5 -38.5q60 0 100 39.5t40 102.5q0 64 -40.5 105t-99.5 41t-100.5 -40t-41.5 -106z" />
<glyph unicode="q" horiz-adv-x="606" d="M43 233q0 108 67.5 176t164.5 68q49 0 92.5 -21t63.5 -58v69h103v-694h-103v294q-20 -37 -63 -57t-93 -20q-97 0 -164.5 67t-67.5 176zM149 231q0 -63 39.5 -102.5t99.5 -39.5q57 0 99.5 38.5t42.5 103.5q0 66 -41 106t-101 40q-59 0 -99 -41t-40 -105z" />
<glyph unicode="r" horiz-adv-x="399" d="M72 0v467h103v-107q34 117 128 117q56 0 83 -18l-17 -95q-32 16 -69 16q-63 0 -94 -57t-31 -155v-168h-103z" />
<glyph unicode="s" horiz-adv-x="444" d="M39 143h95q4 -31 28 -49t64 -18q36 0 59.5 15t23.5 41q0 40 -65 55l-63 15q-73 20 -103.5 57t-25.5 95q4 52 53 87.5t114 35.5q69 0 117.5 -34t52.5 -104h-98q-3 25 -22.5 37.5t-45.5 12.5q-35 0 -58 -18t-12 -50q7 -22 57 -36l72 -18q122 -30 122 -136q0 -66 -52 -103.5 t-134 -37.5q-70 0 -124 41.5t-55 111.5z" />
<glyph unicode="t" horiz-adv-x="336" d="M25 382v85h84v177h103v-177h99v-85h-99v-382h-103v382h-84z" />
<glyph unicode="u" horiz-adv-x="562" d="M67 195v272h103v-260q0 -56 27 -86.5t70 -30.5q51 0 85.5 30.5t34.5 95.5v251h103v-467h-103v68q-19 -37 -59 -57.5t-80 -20.5q-86 0 -134 53.5t-47 151.5z" />
<glyph unicode="v" horiz-adv-x="511" d="M13 467h109l134 -336l132 336h110l-195 -467h-95z" />
<glyph unicode="w" horiz-adv-x="782" d="M15 467h110l108 -315l108 315h96l108 -315l109 315h110l-171 -467h-85l-119 331l-114 -331h-84z" />
<glyph unicode="x" horiz-adv-x="506" d="M9 0l185 255l-153 212h122l90 -129l90 129h122l-153 -212l184 -255h-121l-122 171l-124 -171h-120z" />
<glyph unicode="y" horiz-adv-x="507" d="M13 467h110l130 -320l131 320h110l-289 -695h-108l101 250z" />
<glyph unicode="z" horiz-adv-x="504" d="M41 0v82l264 288h-248v97h398v-82l-268 -288h268v-97h-414z" />
<glyph unicode="{" horiz-adv-x="399" d="M36 196v74q24 0 42.5 17.5t18.5 39.5v174q-1 88 56.5 142t141.5 54h69v-77h-72q-42 0 -71.5 -31t-29.5 -77v-157q0 -97 -67 -122q35 -11 51 -45.5t16 -76.5v-149q0 -45 30 -78t71 -33h72v-78h-69q-84 0 -141 54.5t-57 142.5v170q0 21 -18.5 38.5t-42.5 17.5z" />
<glyph unicode="|" horiz-adv-x="227" d="M81 -120v917h65v-917h-65z" />
<glyph unicode="}" horiz-adv-x="399" d="M35 -149h72q41 0 71 33t30 78v149q0 42 16 76.5t51 45.5q-67 25 -67 122v157q0 46 -29.5 77t-71.5 31h-72v77h69q84 0 141.5 -54t56.5 -142v-174q0 -22 18.5 -39.5t42.5 -17.5v-74q-24 0 -42.5 -17.5t-18.5 -38.5v-170q0 -88 -57 -142.5t-141 -54.5h-69v78z" />
<glyph unicode="&#xa2;" horiz-adv-x="533" d="M48 235q0 95 57 159t145 79v106h65v-103q104 -6 167 -80l-80 -64q-39 45 -105 45q-61 0 -104 -39.5t-43 -102.5q0 -64 43.5 -105t103.5 -41q65 0 105 46l81 -63q-62 -73 -168 -81v-110h-65v113q-87 15 -144.5 80t-57.5 161z" />
<glyph unicode="&#xa3;" horiz-adv-x="643" d="M46 0v98h96v187h-78v61h78v120q0 106 55 168.5t152 62.5q86 0 145 -58t59 -156h-103q0 55 -31.5 84t-76.5 24q-40 -2 -69 -28.5t-29 -67.5v-149h143v-61h-143v-187h198h4q14 0 22 0.5t16.5 7t8.5 18.5v50h102v-51q0 -53 -28 -88t-76 -35h-445z" />
<glyph unicode="&#xa5;" horiz-adv-x="702" d="M33 689h127l190 -274l192 274h127l-262 -370h174v-65h-177v-82h177v-65h-177v-107h-109v107h-174v65h174v82h-174v65h172z" />
<glyph unicode="&#xa9;" horiz-adv-x="807" d="M54 343q0 147 101.5 250.5t247.5 103.5t248 -103.5t102 -250.5t-102 -250t-248 -103t-247.5 103t-101.5 250zM115 343q0 -121 84 -206t204 -85t204 85t84 206t-84 206.5t-204 85.5t-204 -85.5t-84 -206.5zM226 338q0 75 52 127.5t128 52.5q74 0 137 -66l-46 -47 q-46 46 -91 46q-47 0 -79.5 -33t-32.5 -80t32.5 -80.5t79.5 -33.5q45 0 93 48l45 -50q-62 -65 -138 -65q-75 0 -127.5 53t-52.5 128z" />
<glyph unicode="&#xad;" d="M66 190v93h349v-93h-349z" />
<glyph unicode="&#xae;" horiz-adv-x="807" d="M54 343q0 147 101.5 250.5t247.5 103.5t248 -103.5t102 -250.5t-102 -250t-248 -103t-247.5 103t-101.5 250zM115 343q0 -121 84 -206t204 -85t204 85t84 206t-84 206.5t-204 85.5t-204 -85.5t-84 -206.5zM283 165v353h137q54 0 84 -34.5t30 -81.5q0 -39 -19.5 -69.5 t-57.5 -40.5l90 -127h-84l-88 122h-23v-122h-69zM352 355h66q22 0 35 14t13 33q0 20 -12.5 34t-33.5 14h-68v-95z" />
<glyph unicode="&#xb4;" horiz-adv-x="522" d="M129 540l100 158h116l-126 -158h-90z" />
<glyph unicode="&#x2000;" horiz-adv-x="398" />
<glyph unicode="&#x2001;" horiz-adv-x="797" />
<glyph unicode="&#x2002;" horiz-adv-x="398" />
<glyph unicode="&#x2003;" horiz-adv-x="797" />
<glyph unicode="&#x2004;" horiz-adv-x="265" />
<glyph unicode="&#x2005;" horiz-adv-x="199" />
<glyph unicode="&#x2006;" horiz-adv-x="132" />
<glyph unicode="&#x2007;" horiz-adv-x="132" />
<glyph unicode="&#x2008;" horiz-adv-x="99" />
<glyph unicode="&#x2009;" horiz-adv-x="159" />
<glyph unicode="&#x200a;" horiz-adv-x="44" />
<glyph unicode="&#x2010;" d="M66 190v93h349v-93h-349z" />
<glyph unicode="&#x2011;" d="M66 190v93h349v-93h-349z" />
<glyph unicode="&#x2012;" d="M66 190v93h349v-93h-349z" />
<glyph unicode="&#x2013;" horiz-adv-x="601" d="M66 189v90h469v-90h-469z" />
<glyph unicode="&#x2014;" horiz-adv-x="808" d="M66 189v90h676v-90h-676z" />
<glyph unicode="&#x2018;" horiz-adv-x="254" d="M57 466q5 79 38.5 147t69.5 98l54 -22q-72 -101 -71 -223h-91z" />
<glyph unicode="&#x2019;" horiz-adv-x="249" d="M44 466q72 101 71 223h91q-5 -80 -38.5 -147.5t-70.5 -97.5z" />
<glyph unicode="&#x201c;" horiz-adv-x="408" d="M57 467q5 80 38.5 147.5t70.5 97.5l53 -22q-72 -101 -71 -223h-91zM212 467q5 79 38.5 147t69.5 98l53 -22q-71 -102 -70 -223h-91z" />
<glyph unicode="&#x201d;" horiz-adv-x="403" d="M44 466q71 102 71 223h90q-4 -80 -37.5 -147.5t-70.5 -97.5zM198 466q72 101 71 223h91q-5 -80 -38.5 -147.5t-69.5 -97.5z" />
<glyph unicode="&#x2022;" horiz-adv-x="462" d="M79 239q0 62 44.5 103.5t107.5 41.5t107.5 -41.5t44.5 -103.5q0 -63 -44.5 -104.5t-107.5 -41.5t-107.5 41.5t-44.5 104.5z" />
<glyph unicode="&#x2026;" horiz-adv-x="752" d="M63 57q0 29 20.5 48.5t49.5 19.5q30 0 50.5 -19.5t20.5 -48.5t-20.5 -48t-50.5 -19q-29 0 -49.5 19t-20.5 48zM306 57q0 29 20.5 48.5t49.5 19.5q30 0 50.5 -19.5t20.5 -48.5t-20.5 -48t-50.5 -19t-50 19t-20 48zM548 57q0 29 20.5 48.5t50.5 19.5q29 0 50 -19.5 t21 -48.5t-21 -48t-50 -19q-30 0 -50.5 19t-20.5 48z" />
<glyph unicode="&#x202f;" horiz-adv-x="159" />
<glyph unicode="&#x205f;" horiz-adv-x="199" />
<glyph unicode="&#x20ac;" horiz-adv-x="820" d="M49 250v57h473v-57h-252q27 -71 87.5 -114.5t138.5 -43.5q116 0 186 90l82 -65q-46 -60 -115.5 -93.5t-152.5 -33.5q-121 0 -213.5 73t-122.5 187h-111zM49 366v57h108q27 119 121 196.5t218 77.5q81 0 150 -33t116 -91l-82 -64q-76 86 -184 86q-81 0 -143.5 -48 t-86.5 -124h256v-57h-473z" />
<glyph unicode="&#x2122;" horiz-adv-x="844" d="M63 626v63h365l120 -259l119 259h62l45 -378h-69l-31 256l-97 -215h-57l-99 215l-30 -256h-70l37 315h-106v-315h-72v315h-117z" />
<glyph unicode="&#xe000;" horiz-adv-x="465" d="M0 0v465h465v-465h-465z" />
</font>
</defs>
</svg>
